# Blender v2.80 (sub 74) OBJ File: 'Wall.blend'
# www.blender.org
mtllib ConcreteDoorcase.mtl
o ConcreteDoorcase_Cube.008
v 4.000000 0.000000 -0.666667
v 4.000000 6.000000 -0.666667
v 1.233333 6.000000 -0.666667
v 2.333333 0.000000 -0.666667
v 4.000000 5.000000 -0.666667
v 1.233333 5.000000 -0.666667
v 4.000000 4.250000 -0.666667
v 1.233333 4.250000 -0.666667
v 4.000000 3.000000 -0.666667
v 2.333333 3.000000 -0.666667
v 1.233333 6.000000 -1.000000
v 4.000000 6.000000 -1.000000
v 4.000000 5.000000 -1.000000
v 1.233333 5.000000 -1.000000
v 4.000000 0.000000 -0.500000
v 4.000000 6.000000 -0.500000
v 2.333333 0.000000 -0.500000
v 1.233333 6.000000 -0.500000
v 4.000000 5.000000 -0.500000
v 4.000000 4.250000 -0.500000
v 4.000000 3.000000 -0.500000
v 1.233333 5.000000 -0.500000
v 2.333333 3.000000 -0.500000
v 1.233333 4.250000 -0.500000
v 2.939039 6.000000 -0.666667
v 3.797776 0.000000 -0.666667
v 2.939039 5.000000 -0.666667
v 2.939039 4.250000 -0.666667
v 3.797776 3.000000 -0.666667
v 2.939039 6.000000 -1.000000
v 2.939039 5.000000 -1.000000
v 2.939039 6.000000 -0.500000
v 3.797776 0.000000 -0.500000
v 3.797776 3.000000 -0.500000
v 3.797776 4.250000 -0.500000
v 3.797776 5.000000 -0.500000
v 4.000000 0.000000 0.666667
v 4.000000 6.000000 0.666667
v 1.233333 6.000000 0.666667
v 2.333333 0.000000 0.666667
v 4.000000 5.000000 0.666667
v 1.233333 5.000000 0.666667
v 4.000000 4.250000 0.666667
v 1.233333 4.250000 0.666667
v 4.000000 3.000000 0.666667
v 2.333333 3.000000 0.666667
v 1.233333 6.000000 1.000000
v 4.000000 6.000000 1.000000
v 4.000000 5.000000 1.000000
v 1.233333 5.000000 1.000000
v 4.000000 0.000000 0.500000
v 4.000000 6.000000 0.500000
v 2.333333 0.000000 0.500000
v 1.233333 6.000000 0.500000
v 4.000000 5.000000 0.500000
v 4.000000 4.250000 0.500000
v 4.000000 3.000000 0.500000
v 1.233333 5.000000 0.500000
v 2.333333 3.000000 0.500000
v 1.233333 4.250000 0.500000
v 2.939039 6.000000 0.666667
v 3.797776 0.000000 0.666667
v 2.939039 5.000000 0.666667
v 2.939039 4.250000 0.666667
v 3.797776 3.000000 0.666667
v 2.939039 6.000000 1.000000
v 2.939039 5.000000 1.000000
v 2.939039 6.000000 0.500000
v 3.797776 0.000000 0.500000
v 3.797776 3.000000 0.500000
v 3.797776 4.250000 0.500000
v 3.797776 5.000000 0.500000
v -4.000000 0.000000 -0.666667
v -4.000000 6.000000 -0.666667
v -1.233333 6.000000 -0.666667
v -2.333333 0.000000 -0.666667
v -4.000000 5.000000 -0.666667
v -1.233333 5.000000 -0.666667
v -4.000000 4.250000 -0.666667
v -1.233333 4.250000 -0.666667
v -4.000000 3.000000 -0.666667
v -2.333333 3.000000 -0.666667
v -1.233333 6.000000 -1.000000
v -4.000000 6.000000 -1.000000
v -4.000000 5.000000 -1.000000
v -1.233333 5.000000 -1.000000
v -4.000000 0.000000 -0.500000
v -4.000000 6.000000 -0.500000
v -2.333333 0.000000 -0.500000
v -1.233333 6.000000 -0.500000
v -4.000000 5.000000 -0.500000
v -4.000000 4.250000 -0.500000
v -4.000000 3.000000 -0.500000
v -1.233333 5.000000 -0.500000
v -2.333333 3.000000 -0.500000
v -1.233333 4.250000 -0.500000
v -2.939039 6.000000 -0.666667
v -3.797776 0.000000 -0.666667
v -2.939039 5.000000 -0.666667
v -2.939039 4.250000 -0.666667
v -3.797776 3.000000 -0.666667
v -2.939039 6.000000 -1.000000
v -2.939039 5.000000 -1.000000
v -2.939039 6.000000 -0.500000
v -3.797776 0.000000 -0.500000
v -3.797776 3.000000 -0.500000
v -3.797776 4.250000 -0.500000
v -3.797776 5.000000 -0.500000
v -4.000000 0.000000 0.666667
v -4.000000 6.000000 0.666667
v -1.233333 6.000000 0.666667
v -2.333333 0.000000 0.666667
v -4.000000 5.000000 0.666667
v -1.233333 5.000000 0.666667
v -4.000000 4.250000 0.666667
v -1.233333 4.250000 0.666667
v -4.000000 3.000000 0.666667
v -2.333333 3.000000 0.666667
v -1.233333 6.000000 1.000000
v -4.000000 6.000000 1.000000
v -4.000000 5.000000 1.000000
v -1.233333 5.000000 1.000000
v -4.000000 0.000000 0.500000
v -4.000000 6.000000 0.500000
v -2.333333 0.000000 0.500000
v -1.233333 6.000000 0.500000
v -4.000000 5.000000 0.500000
v -4.000000 4.250000 0.500000
v -4.000000 3.000000 0.500000
v -1.233333 5.000000 0.500000
v -2.333333 3.000000 0.500000
v -1.233333 4.250000 0.500000
v -2.939039 6.000000 0.666667
v -3.797776 0.000000 0.666667
v -2.939039 5.000000 0.666667
v -2.939039 4.250000 0.666667
v -3.797776 3.000000 0.666667
v -2.939039 6.000000 1.000000
v -2.939039 5.000000 1.000000
v -2.939039 6.000000 0.500000
v -3.797776 0.000000 0.500000
v -3.797776 3.000000 0.500000
v -3.797776 4.250000 0.500000
v -3.797776 5.000000 0.500000
vt 0.095310 0.175454
vt 0.095310 0.331525
vt 0.032038 0.331525
vt 0.032038 0.175454
vt 0.633926 0.730692
vt 0.633926 0.809782
vt 0.570654 0.809782
vt 0.570654 0.730692
vt 0.837224 0.777092
vt 0.900496 0.777092
vt 0.900496 0.824546
vt 0.837224 0.824546
vt 0.328112 0.775897
vt 0.391384 0.775897
vt 0.391384 0.788692
vt 0.328112 0.788692
vt 0.837224 0.698002
vt 0.900496 0.698002
vt 0.411531 0.175205
vt 0.411531 0.127751
vt 0.478660 0.127751
vt 0.478660 0.175205
vt 0.465865 0.254295
vt 0.478660 0.254295
vt 0.458873 0.105856
vt 0.302803 0.105856
vt 0.302803 0.095310
vt 0.458873 0.095310
vt 0.633926 0.999598
vt 0.570654 0.999598
vt 0.932936 0.566797
vt 0.996208 0.566797
vt 0.996208 0.633926
vt 0.932936 0.633926
vt 0.194880 0.021493
vt 0.127751 0.021493
vt 0.127751 0.000403
vt 0.194880 0.000403
vt 0.911041 0.887818
vt 0.911041 0.824546
vt 0.932132 0.824546
vt 0.932132 0.887818
vt 0.105855 0.439448
vt 0.105856 0.331525
vt 0.126946 0.331525
vt 0.126946 0.439448
vt 0.458873 0.021493
vt 0.302803 0.021493
vt 0.302803 0.000402
vt 0.458873 0.000402
vt 0.194880 0.095310
vt 0.194880 0.032038
vt 0.302803 0.032038
vt 0.465865 0.444110
vt 0.478660 0.444110
vt 0.911041 0.698002
vt 0.911041 0.777092
vt 0.900496 0.887818
vt 0.401929 0.775897
vt 0.401929 0.788692
vt 0.911041 0.508187
vt 0.900496 0.508187
vt 0.719898 0.000402
vt 0.730443 0.000402
vt 0.730443 0.105755
vt 0.719898 0.105755
vt 0.255804 0.492369
vt 0.245258 0.492369
vt 0.245258 0.444915
vt 0.255804 0.444915
vt 0.401929 0.683239
vt 0.391384 0.683239
vt 0.127751 0.032038
vt 0.105855 0.506577
vt 0.126946 0.506577
vt 0.932936 0.458874
vt 0.996208 0.458874
vt 0.127751 0.506577
vt 0.127751 0.496032
vt 0.317566 0.496032
vt 0.317566 0.506577
vt 0.373207 0.254295
vt 0.303608 0.175205
vt 0.303608 0.127751
vt 0.373207 0.444110
vt 0.837224 0.508187
vt 0.633926 0.683239
vt 0.570654 0.683239
vt 0.047856 0.683239
vt 0.126946 0.752838
vt 0.126946 0.845496
vt 0.047856 0.845496
vt 0.095310 0.493782
vt 0.032038 0.493782
vt 0.000402 0.683239
vt 0.000402 0.845496
vt 0.837224 0.887818
vt 0.127751 0.095310
vt 0.021493 0.175454
vt 0.021493 0.331525
vt 0.000402 0.331525
vt 0.000402 0.175454
vt 0.365020 0.615305
vt 0.365020 0.682434
vt 0.317566 0.682434
vt 0.317566 0.615305
vt 0.444110 0.669639
vt 0.444110 0.682434
vt 0.316762 0.752838
vt 0.316762 0.845496
vt 0.439448 0.846300
vt 0.506577 0.846300
vt 0.506577 0.909572
vt 0.439448 0.909572
vt 0.194880 0.105856
vt 0.194880 0.126946
vt 0.127751 0.126946
vt 0.127751 0.105856
vt 0.826679 0.887818
vt 0.805588 0.887818
vt 0.805588 0.824546
vt 0.826679 0.824546
vt 0.021493 0.439448
vt 0.000402 0.439448
vt 0.458873 0.032038
vt 0.633926 0.669639
vt 0.633926 0.682434
vt 0.826679 0.698002
vt 0.826679 0.777092
vt 0.317566 0.775897
vt 0.317566 0.788692
vt 0.826679 0.508187
vt 0.741793 0.000402
vt 0.741793 0.105755
vt 0.731247 0.105755
vt 0.731247 0.000402
vt 0.233908 0.492369
vt 0.233908 0.444915
vt 0.244454 0.444915
vt 0.244454 0.492369
vt 0.317566 0.683239
vt 0.328112 0.683239
vt 0.021493 0.506576
vt 0.000402 0.506576
vt 0.302803 0.126946
vt 0.331525 0.846300
vt 0.331525 0.909572
vt 0.536604 0.873054
vt 0.536604 0.683239
vt 0.547149 0.683239
vt 0.547149 0.873054
vt 0.444110 0.576981
vt 0.365020 0.507382
vt 0.317566 0.507382
vt 0.633926 0.576981
vt 0.642526 0.175205
vt 0.804783 0.175205
vt 0.804783 0.254295
vt 0.712125 0.254295
vt 0.642526 0.127751
vt 0.804783 0.127751
vt 0.458873 0.126946
vt 0.105856 0.175454
vt 0.175455 0.846300
vt 0.175455 0.909572
vt 0.126946 0.175454
vt 0.932936 0.682184
vt 0.996208 0.682184
vt 0.996208 0.761274
vt 0.932936 0.761274
vt 0.900496 0.396656
vt 0.900496 0.444110
vt 0.837224 0.444110
vt 0.837224 0.396656
vt 0.645275 0.013197
vt 0.645275 0.000402
vt 0.708547 0.000402
vt 0.708547 0.013197
vt 0.900496 0.317566
vt 0.837224 0.317566
vt 0.047856 0.615305
vt 0.047856 0.682434
vt 0.000402 0.682434
vt 0.000402 0.615305
vt 0.126946 0.669639
vt 0.126946 0.682434
vt 0.804783 0.444110
vt 0.712125 0.444110
vt 0.932936 0.951090
vt 0.996208 0.951090
vt 0.932936 0.194880
vt 0.932936 0.127751
vt 0.996208 0.127751
vt 0.996208 0.194880
vt 0.566796 0.021493
vt 0.566796 0.000402
vt 0.633925 0.000402
vt 0.633925 0.021493
vt 0.826679 0.507382
vt 0.805588 0.507382
vt 0.805588 0.444110
vt 0.826679 0.444110
vt 0.105856 0.067532
vt 0.126946 0.067532
vt 0.566796 0.095310
vt 0.566796 0.032038
vt 0.316762 0.669639
vt 0.316762 0.682434
vt 0.826678 0.317566
vt 0.826679 0.396656
vt 0.837224 0.507382
vt 0.719093 0.013197
vt 0.719093 0.000402
vt 0.826678 0.127751
vt 0.837224 0.127751
vt 0.127751 0.444915
vt 0.233104 0.444915
vt 0.233104 0.455460
vt 0.127751 0.455460
vt 0.256608 0.492369
vt 0.256608 0.444915
vt 0.267154 0.444915
vt 0.267154 0.492369
vt 0.719093 0.105855
vt 0.708548 0.105855
vt 0.633925 0.032038
vt 0.105856 0.000403
vt 0.126946 0.000403
vt 0.932936 0.302803
vt 0.996208 0.302803
vt 0.569849 0.683239
vt 0.569849 0.873054
vt 0.559304 0.873054
vt 0.559304 0.683239
vt 0.126946 0.576981
vt 0.047856 0.507382
vt 0.000402 0.507382
vt 0.316762 0.576981
vt 0.900495 0.127751
vt 0.932936 0.634730
vt 0.996208 0.634730
vt 0.479465 0.175205
vt 0.641722 0.175205
vt 0.641722 0.254295
vt 0.549064 0.254295
vt 0.095310 0.013197
vt 0.032038 0.013197
vt 0.479465 0.127751
vt 0.641722 0.127751
vt 0.900496 0.507382
vt 0.633925 0.095310
vt 0.235674 0.175205
vt 0.235674 0.127751
vt 0.302803 0.127751
vt 0.302803 0.175205
vt 0.290008 0.254295
vt 0.302803 0.254295
vt 0.641722 0.444110
vt 0.549064 0.444110
vt 0.067531 0.846300
vt 0.067531 0.909572
vt 0.000402 0.909572
vt 0.000402 0.846300
vt 0.566796 0.105856
vt 0.633925 0.105856
vt 0.633925 0.126946
vt 0.566796 0.126946
vt 0.911041 0.507382
vt 0.911041 0.444110
vt 0.932132 0.444110
vt 0.932132 0.507382
vt 0.021493 0.067531
vt 0.000402 0.067531
vt 0.290008 0.444110
vt 0.302803 0.444110
vt 0.911041 0.317566
vt 0.911041 0.396656
vt 0.634730 0.013197
vt 0.634730 0.000402
vt 0.911041 0.127751
vt 0.127751 0.466810
vt 0.127751 0.456265
vt 0.233104 0.456265
vt 0.233104 0.466810
vt 0.278504 0.492369
vt 0.267958 0.492369
vt 0.267958 0.444915
vt 0.278504 0.444915
vt 0.634730 0.105856
vt 0.645276 0.105856
vt 0.021493 0.000402
vt 0.000402 0.000402
vt 0.547954 0.683239
vt 0.558499 0.683239
vt 0.558499 0.873054
vt 0.547954 0.873054
vt 0.197350 0.254295
vt 0.127751 0.175205
vt 0.127751 0.127751
vt 0.197350 0.444110
vt 0.804783 0.492369
vt 0.735184 0.571459
vt 0.642526 0.571459
vt 0.642526 0.492369
vt 0.804783 0.444915
vt 0.642526 0.444915
vt 0.735184 0.761274
vt 0.642526 0.761274
vn 0.0000 -1.0000 0.0000
vn -1.0000 0.0000 0.0000
vn 1.0000 0.0000 0.0000
vn 0.0000 0.0000 -1.0000
vn 0.0000 1.0000 0.0000
vn -0.9356 -0.3530 0.0000
vn -0.0000 -0.0000 1.0000
vn 0.9356 -0.3530 0.0000
usemtl None
s 1
f 94/1/1 22/2/1 58/3/1 130/4/1
f 35/5/2 34/6/2 70/7/2 71/8/2
f 56/9/3 20/10/3 19/11/3 55/12/3
f 69/13/1 33/14/1 15/15/1 51/16/1
f 57/17/3 21/18/3 20/10/3 56/9/3
f 28/19/4 27/20/4 5/21/4 7/22/4
f 29/23/4 28/19/4 7/22/4 9/24/4
f 111/25/5 39/26/5 54/27/5 126/28/5
f 33/29/2 69/30/2 70/7/2 34/6/2
f 31/31/4 30/32/4 12/33/4 13/34/4
f 25/35/5 2/36/5 12/37/5 30/38/5
f 2/39/3 5/40/3 13/41/3 12/42/3
f 27/43/1 6/44/1 14/45/1 31/46/1
f 75/47/5 3/48/5 11/49/5 83/50/5
f 68/51/5 32/52/5 18/53/5 54/27/5
f 26/54/4 29/23/4 9/24/4 1/55/4
f 9/56/3 7/57/3 20/10/3 21/18/3
f 7/57/3 5/40/3 19/11/3 20/10/3
f 25/35/5 3/48/5 18/53/5 32/52/5
f 5/40/3 2/39/3 16/58/3 19/11/3
f 26/59/1 1/60/1 15/15/1 33/14/1
f 1/61/3 9/56/3 21/18/3 15/62/3
f 24/63/6 8/64/6 10/65/6 23/66/6
f 8/67/6 24/68/6 22/69/2 6/70/2
f 4/71/1 26/59/1 33/14/1 17/72/1
f 2/36/5 25/35/5 32/52/5 16/73/5
f 5/74/1 27/43/1 31/46/1 13/75/1
f 3/48/5 25/35/5 30/38/5 11/49/5
f 14/76/4 11/77/4 30/32/4 31/31/4
f 23/78/6 10/79/6 4/80/2 17/81/2
f 10/82/4 8/83/4 28/19/4 29/23/4
f 8/83/4 6/84/4 27/20/4 28/19/4
f 4/85/4 10/82/4 29/23/4 26/54/4
f 51/86/3 15/62/3 21/18/3 57/17/3
f 36/87/2 35/5/2 71/8/2 72/88/2
f 24/89/7 23/90/7 34/91/7 35/92/7
f 36/93/1 72/94/1 58/3/1 22/2/1
f 22/95/7 24/89/7 35/92/7 36/96/7
f 55/12/3 19/11/3 16/58/3 52/97/3
f 52/98/5 16/73/5 32/52/5 68/51/5
f 114/99/1 42/100/1 50/101/1 122/102/1
f 64/103/7 43/104/7 41/105/7 63/106/7
f 65/107/7 45/108/7 43/104/7 64/103/7
f 34/91/7 23/90/7 17/109/7 33/110/7
f 67/111/7 49/112/7 48/113/7 66/114/7
f 61/115/5 66/116/5 48/117/5 38/118/5
f 38/119/3 48/120/3 49/121/3 41/122/3
f 63/123/1 67/124/1 50/101/1 42/100/1
f 90/125/5 18/53/5 3/48/5 75/47/5
f 62/126/7 37/127/7 45/108/7 65/107/7
f 45/128/3 57/17/3 56/9/3 43/129/3
f 43/129/3 56/9/3 55/12/3 41/122/3
f 61/115/5 68/51/5 54/27/5 39/26/5
f 41/122/3 55/12/3 52/97/3 38/119/3
f 62/130/1 69/13/1 51/16/1 37/131/1
f 37/132/3 51/86/3 57/17/3 45/128/3
f 60/133/6 59/134/6 46/135/6 44/136/6
f 44/137/6 42/138/2 58/139/2 60/140/6
f 40/141/1 53/142/1 69/13/1 62/130/1
f 38/118/5 52/98/5 68/51/5 61/115/5
f 41/143/1 49/144/1 67/124/1 63/123/1
f 39/26/5 47/145/5 66/116/5 61/115/5
f 50/146/7 67/111/7 66/114/7 47/147/7
f 59/148/6 53/149/2 40/150/2 46/151/6
f 46/152/7 65/107/7 64/103/7 44/153/7
f 44/153/7 64/103/7 63/106/7 42/154/7
f 40/155/7 62/126/7 65/107/7 46/152/7
f 60/156/4 71/157/4 70/158/4 59/159/4
f 58/160/4 72/161/4 71/157/4 60/156/4
f 130/4/1 58/3/1 42/100/1 114/99/1
f 119/162/5 47/145/5 39/26/5 111/25/5
f 78/163/1 6/44/1 22/2/1 94/1/1
f 126/28/5 54/27/5 18/53/5 90/125/5
f 122/164/7 50/146/7 47/147/7 119/165/7
f 86/166/1 14/45/1 6/44/1 78/163/1
f 107/167/3 143/168/3 142/169/3 106/170/3
f 128/171/2 127/172/2 91/173/2 92/174/2
f 141/175/1 123/176/1 87/177/1 105/178/1
f 129/179/2 128/171/2 92/174/2 93/180/2
f 100/181/4 79/182/4 77/183/4 99/184/4
f 101/185/4 81/186/4 79/182/4 100/181/4
f 70/158/4 69/187/4 53/188/4 59/159/4
f 105/189/3 106/170/3 142/169/3 141/190/3
f 103/191/4 85/192/4 84/193/4 102/194/4
f 97/195/5 102/196/5 84/197/5 74/198/5
f 74/199/2 84/200/2 85/201/2 77/202/2
f 99/203/1 103/204/1 86/166/1 78/163/1
f 140/205/5 126/28/5 90/125/5 104/206/5
f 98/207/4 73/208/4 81/186/4 101/185/4
f 81/209/2 93/180/2 92/174/2 79/210/2
f 79/210/2 92/174/2 91/173/2 77/202/2
f 97/195/5 104/206/5 90/125/5 75/47/5
f 77/202/2 91/173/2 88/211/2 74/199/2
f 98/212/1 105/178/1 87/177/1 73/213/1
f 73/214/2 87/215/2 93/180/2 81/209/2
f 96/216/8 95/217/8 82/218/8 80/219/8
f 80/220/8 78/221/3 94/222/3 96/223/8
f 76/224/1 89/225/1 105/178/1 98/212/1
f 74/198/5 88/226/5 104/206/5 97/195/5
f 77/227/1 85/228/1 103/204/1 99/203/1
f 75/47/5 83/50/5 102/196/5 97/195/5
f 86/229/4 103/191/4 102/194/4 83/230/4
f 95/231/8 89/232/3 76/233/3 82/234/8
f 82/235/4 101/185/4 100/181/4 80/236/4
f 80/236/4 100/181/4 99/184/4 78/237/4
f 76/238/4 98/207/4 101/185/4 82/235/4
f 123/239/2 129/179/2 93/180/2 87/215/2
f 108/240/3 144/241/3 143/168/3 107/167/3
f 96/242/7 107/243/7 106/244/7 95/245/7
f 108/246/1 94/1/1 130/4/1 144/247/1
f 94/248/7 108/249/7 107/243/7 96/242/7
f 127/172/2 124/250/2 88/211/2 91/173/2
f 124/251/5 140/205/5 104/206/5 88/226/5
f 136/252/7 135/253/7 113/254/7 115/255/7
f 137/256/7 136/252/7 115/255/7 117/257/7
f 106/244/7 105/258/7 89/259/7 95/245/7
f 139/260/7 138/261/7 120/262/7 121/263/7
f 133/264/5 110/265/5 120/266/5 138/267/5
f 110/268/2 113/269/2 121/270/2 120/271/2
f 135/272/1 114/99/1 122/102/1 139/273/1
f 134/274/7 137/256/7 117/257/7 109/275/7
f 117/276/2 115/277/2 128/171/2 129/179/2
f 115/277/2 113/269/2 127/172/2 128/171/2
f 133/264/5 111/25/5 126/28/5 140/205/5
f 113/269/2 110/268/2 124/250/2 127/172/2
f 134/278/1 109/279/1 123/176/1 141/175/1
f 109/280/2 117/276/2 129/179/2 123/239/2
f 132/281/8 116/282/8 118/283/8 131/284/8
f 116/285/8 132/286/8 130/287/3 114/288/3
f 112/289/1 134/278/1 141/175/1 125/290/1
f 110/265/5 133/264/5 140/205/5 124/251/5
f 113/291/1 135/272/1 139/273/1 121/292/1
f 111/25/5 133/264/5 138/267/5 119/162/5
f 122/164/7 119/165/7 138/261/7 139/260/7
f 131/293/8 118/294/8 112/295/3 125/296/3
f 118/297/7 116/298/7 136/252/7 137/256/7
f 116/298/7 114/299/7 135/253/7 136/252/7
f 112/300/7 118/297/7 137/256/7 134/274/7
f 132/301/4 131/302/4 142/303/4 143/304/4
f 130/305/4 132/301/4 143/304/4 144/306/4
f 83/230/4 11/77/4 14/76/4 86/229/4
f 142/303/4 131/302/4 125/307/4 141/308/4
