# Blender v2.80 (sub 74) OBJ File: 'Wall.blend'
# www.blender.org
mtllib ConcreteLong.mtl
o ConcreteLong_Cube.000
v -4.000000 0.000000 1.000000
v -4.000000 6.000000 1.000000
v -4.000000 0.000000 -1.000000
v -4.000000 6.000000 -1.000000
v 4.000000 0.000000 1.000000
v 4.000000 6.000000 1.000000
v 4.000000 0.000000 -1.000000
v 4.000000 6.000000 -1.000000
vt 0.571106 0.998973
vt 0.571106 0.571106
vt 0.713729 0.571106
vt 0.713729 0.998974
vt 0.570695 0.000205
vt 0.570695 0.428073
vt 0.000205 0.428073
vt 0.000205 0.000205
vt 0.857172 0.428073
vt 0.857172 0.000205
vt 0.999795 0.000205
vt 0.999795 0.428073
vt 0.428073 0.998973
vt 0.000205 0.998973
vt 0.000205 0.428483
vt 0.428073 0.428483
vt 0.856762 0.000205
vt 0.856762 0.570695
vt 0.714139 0.570695
vt 0.714139 0.000205
vt 0.571106 0.570695
vt 0.571106 0.000205
vt 0.713728 0.000205
vt 0.713729 0.570695
vn -1.0000 0.0000 0.0000
vn 0.0000 0.0000 -1.0000
vn 1.0000 0.0000 0.0000
vn 0.0000 0.0000 1.0000
vn 0.0000 -1.0000 0.0000
vn 0.0000 1.0000 0.0000
usemtl None
s off
f 1/1/1 2/2/1 4/3/1 3/4/1
f 3/5/2 4/6/2 8/7/2 7/8/2
f 7/9/3 8/10/3 6/11/3 5/12/3
f 5/13/4 6/14/4 2/15/4 1/16/4
f 3/17/5 7/18/5 5/19/5 1/20/5
f 8/21/6 4/22/6 2/23/6 6/24/6
