# Blender v2.80 (sub 74) OBJ File: 'Wall.blend'
# www.blender.org
mtllib Switch.mtl
o Button_Plane.005
v 0.611642 -0.651885 -0.165950
v 0.611642 -0.651885 0.165950
v 0.774413 -0.489113 -0.165950
v 0.774413 -0.489113 0.165950
v -0.611642 -0.651885 -0.165950
v -0.611642 -0.651885 0.165950
v -0.774413 -0.489113 -0.165950
v -0.774413 -0.489113 0.165950
v 0.611642 0.896942 -0.165950
v 0.611642 0.896942 0.165950
v 0.774413 0.734171 -0.165950
v 0.774413 0.734171 0.165950
v -0.774413 0.734171 -0.165950
v -0.774413 0.734171 0.165950
v -0.611642 0.896942 -0.165950
v -0.611642 0.896942 0.165950
vt 0.500000 0.632795
vt 0.574312 0.632795
vt 0.574312 0.739940
vt 0.500000 0.739940
vt 0.714291 0.353554
vt 0.714291 0.427866
vt 0.607146 0.427866
vt 0.607146 0.353554
vt 0.500000 0.353553
vt 0.500000 0.279241
vt 0.607146 0.279241
vt 0.607146 0.353553
vt 0.500000 0.000000
vt 0.607146 0.000000
vt 0.500000 0.632795
vt 0.607146 0.632795
vt 0.447453 0.000000
vt 0.500000 0.052547
vt 0.500000 0.447453
vt 0.447453 0.500000
vt 0.052547 0.500000
vt 0.000000 0.447453
vt 0.000000 0.052547
vt 0.052547 0.000000
vt 0.714291 0.074312
vt 0.714291 0.353553
vt 0.607146 0.353553
vt 0.607146 0.074312
vt 0.714291 0.000000
vt 0.607146 0.000000
vt 0.500000 0.947453
vt 0.447453 1.000000
vt 0.052547 1.000000
vt 0.000000 0.947453
vt 0.000000 0.552547
vt 0.052547 0.500000
vt 0.447453 0.500000
vt 0.500000 0.552547
vt 0.714291 0.707107
vt 0.607146 0.707107
vn 0.7071 0.7071 0.0000
vn -0.7071 -0.7071 0.0000
vn -0.7071 0.7071 0.0000
vn -1.0000 0.0000 0.0000
vn 0.0000 1.0000 0.0000
vn -0.0000 -0.0000 1.0000
vn 1.0000 -0.0000 0.0000
vn 0.7071 -0.7071 0.0000
vn 0.0000 0.0000 -1.0000
vn -0.0000 -1.0000 0.0000
usemtl None
s 1
f 11/1/1 9/2/1 10/3/1 12/4/1
f 7/5/2 5/6/2 6/7/2 8/8/2
f 15/9/3 13/10/3 14/11/3 16/12/3
f 13/10/4 7/13/4 8/14/4 14/11/4
f 9/15/5 15/9/5 16/12/5 10/16/5
f 8/17/6 6/18/6 2/19/6 4/20/6 12/21/6 10/22/6 16/23/6 14/24/6
f 3/25/7 11/26/7 12/27/7 4/28/7
f 1/29/8 3/25/8 4/28/8 2/30/8
f 13/31/9 15/32/9 9/33/9 11/34/9 3/35/9 1/36/9 5/37/9 7/38/9
f 5/6/10 1/39/10 2/40/10 6/7/10
